<mxfile host="app.diagrams.net" modified="2023-07-28T16:07:07.873Z" agent="Mozilla/5.0 (Macintosh; Intel Mac OS X 10_15_7) AppleWebKit/605.1.15 (KHTML, like Gecko) Version/16.5.2 Safari/605.1.15" version="21.6.5" etag="naZ_p2U4-1Bp3xsdDcNp" type="github">
  <diagram name="Page-1" id="PJw18gTDL8AQlg1JheF6">
    <mxGraphModel>
      <root>
        <mxCell id="0" />
        <mxCell id="1" parent="0" />
      </root>
    </mxGraphModel>
  </diagram>
</mxfile>
